<?xml version="1.0" encoding="UTF-8" standalone="no"?>
<!-- Created with Inkscape (http://www.inkscape.org/) -->

<svg
   width="32.389626mm"
   height="32.389626mm"
   viewBox="0 0 32.389626 32.389626"
   version="1.1"
   id="svg1"
   xmlns="http://www.w3.org/2000/svg"
   xmlns:svg="http://www.w3.org/2000/svg">
  <defs
     id="defs1" />
  <g
     id="layer1"
     transform="translate(-88.805188,-132.30519)">
    <g
       id="g6">
      <circle
         style="fill:#ffe2a8;stroke-width:4.2;paint-order:markers stroke fill"
         id="path7"
         cx="105"
         cy="148.5"
         r="16.194813" />
      <path
         id="path4"
         style="font-size:25.4px;line-height:0.9;font-family:'Cooper Hewitt';-inkscape-font-specification:'Cooper Hewitt';font-variant-ligatures:discretionary-ligatures historical-ligatures;font-variant-numeric:oldstyle-nums;text-align:center;letter-spacing:0px;text-anchor:middle;stroke-width:4.2;paint-order:markers stroke fill"
         d="m 44.988664,164.50132 h 10.2108 v -10.81616 l -1.8288,0.52917 v 8.63599 h -10.0584 z m -3.5052,0 v -10.81616 l 1.8288,0.52917 v 8.63599 l 1.6764,1.651 z m 7.747,-17.26777 5.969,6.45161 -1.8288,0.52917 -5.0292,-5.2966 -5.0292,5.2966 -1.8288,-0.52917 5.969,-6.45161 z" />
      <path
         id="path6"
         style="font-size:25.4px;line-height:0.9;font-family:'Cooper Hewitt';-inkscape-font-specification:'Cooper Hewitt';font-variant-ligatures:discretionary-ligatures historical-ligatures;font-variant-numeric:oldstyle-nums;text-align:center;letter-spacing:0px;text-anchor:middle;stroke-width:4.2;paint-order:markers stroke fill"
         d="m 51.846664,164.50132 h 10.2108 v -10.81616 l -1.8288,0.52917 v 8.63599 h -10.0584 z m -3.5052,0 v -10.81616 l 1.8288,0.52917 v 8.63599 l 1.6764,1.651 z m 7.747,-17.26777 5.969,6.45161 -1.8288,0.52917 -5.0292,-5.2966 -5.0292,5.2966 -1.8288,-0.52917 5.969,-6.45161 z" />
      <text
         xml:space="preserve"
         style="font-style:normal;font-variant:normal;font-weight:normal;font-stretch:normal;font-size:25.4px;line-height:0.9;font-family:'Cooper Hewitt';-inkscape-font-specification:'Cooper Hewitt';font-variant-ligatures:discretionary-ligatures historical-ligatures;font-variant-numeric:oldstyle-nums;text-align:center;letter-spacing:0px;writing-mode:lr-tb;direction:ltr;text-anchor:middle;fill:#241600;stroke-width:4.2;paint-order:markers stroke fill"
         x="104.8476"
         y="158.40601"
         id="text7"><tspan
           id="tspan6"
           style="font-style:normal;font-variant:normal;font-weight:500;font-stretch:normal;font-family:'Cooper Hewitt';-inkscape-font-specification:'Cooper Hewitt Medium';stroke-width:4.2"
           x="104.8476"
           y="158.40601">→</tspan></text>
    </g>
  </g>
</svg>
