<?xml version="1.0" encoding="UTF-8" standalone="no"?>
<!-- Created with Inkscape (http://www.inkscape.org/) -->

<svg
   width="210mm"
   height="297mm"
   viewBox="0 0 210 297"
   version="1.1"
   id="svg1"
   inkscape:version="1.4 (e7c3feb100, 2024-10-09)"
   sodipodi:docname="logo.svg"
   xmlns:inkscape="http://www.inkscape.org/namespaces/inkscape"
   xmlns:sodipodi="http://sodipodi.sourceforge.net/DTD/sodipodi-0.dtd"
   xmlns="http://www.w3.org/2000/svg"
   xmlns:svg="http://www.w3.org/2000/svg">
  <sodipodi:namedview
     id="namedview1"
     pagecolor="#ffffff"
     bordercolor="#000000"
     borderopacity="0.25"
     inkscape:showpageshadow="2"
     inkscape:pageopacity="0.0"
     inkscape:pagecheckerboard="0"
     inkscape:deskcolor="#d1d1d1"
     inkscape:document-units="mm"
     showguides="false"
     inkscape:zoom="1.0204311"
     inkscape:cx="275.37381"
     inkscape:cy="796.7221"
     inkscape:window-width="1920"
     inkscape:window-height="1131"
     inkscape:window-x="0"
     inkscape:window-y="0"
     inkscape:window-maximized="1"
     inkscape:current-layer="layer1" />
  <defs
     id="defs1" />
  <g
     inkscape:label="Lager 1"
     inkscape:groupmode="layer"
     id="layer1">
    <path
       style="fill:#ffa348;fill-opacity:1;stroke:none;stroke-width:2.4;stroke-linecap:butt;stroke-linejoin:miter;stroke-dasharray:none;stroke-opacity:1;paint-order:normal"
       d="m 37.210748,222.46905 c 12.056928,10.23966 25.400994,-10.13718 13.204521,-15.9305 -22.03488,-10.46656 -23.635775,7.07149 -13.204521,15.9305 z"
       id="path12"
       sodipodi:nodetypes="sss"
       inkscape:export-filename="../../favicon.svg"
       inkscape:export-xdpi="300"
       inkscape:export-ydpi="300" />
    <path
       id="rect9"
       style="fill:#060504;stroke-width:2.80001;fill-opacity:1"
       d="m 39.128877,203.94001 -5.712829,6.25543 v 10.66188 h 13.236401 v -10.66188 l -5.710763,-6.25543 z m 0.906405,2.56573 4.218864,4.61936 v 7.33185 h -8.439279 v -7.33185 z" />
    <path
       style="fill:none;stroke:#000000;stroke-width:4.2;stroke-linejoin:miter;stroke-dasharray:none;stroke-opacity:1;paint-order:markers stroke fill;stroke-linecap:butt"
       d="M 51.008815,24.29401 33.419568,39.420762 v 23.724635 l 35.178494,0.175892 V 39.420762 Z"
       id="path2"
       sodipodi:nodetypes="cccccc" />
    <path
       style="fill:none;stroke:#000000;stroke-width:4.2;stroke-linecap:butt;stroke-linejoin:miter;stroke-dasharray:none;stroke-opacity:1;paint-order:markers stroke fill"
       d="M 72.831398,24.29401 55.242151,39.420762 v 23.724635 l 35.178494,0.175892 V 39.420762 Z"
       id="path3"
       sodipodi:nodetypes="cccccc" />
    <text
       xml:space="preserve"
       style="font-style:normal;font-variant:normal;font-weight:bold;font-stretch:normal;font-size:25.4px;line-height:0.9;font-family:'Cooper Hewitt';-inkscape-font-specification:'Cooper Hewitt, Bold';font-variant-ligatures:discretionary-ligatures historical-ligatures;font-variant-numeric:oldstyle-nums;text-align:center;letter-spacing:0px;writing-mode:lr-tb;direction:ltr;text-anchor:middle;fill:#000000;stroke:none;stroke-width:4.2;stroke-linecap:butt;stroke-linejoin:miter;stroke-dasharray:none;stroke-opacity:1;paint-order:markers stroke fill;font-variant-caps:normal"
       x="94.283379"
       y="106.8651"
       id="text3"><tspan
         sodipodi:role="line"
         id="tspan3"
         style="font-style:normal;font-variant:normal;font-weight:bold;font-stretch:normal;font-size:25.4px;font-family:'Cooper Hewitt';-inkscape-font-specification:'Cooper Hewitt, Bold';font-variant-ligatures:discretionary-ligatures historical-ligatures ;font-variant-caps:normal;font-variant-numeric:oldstyle-nums ;stroke:none;stroke-width:4.2;font-variant-east-asian:"
         x="94.283379"
         y="106.8651">Brf Urbilden</tspan></text>
    <path
       d="m 113.55716,18.732698 8.382,10.460567 V 41.677882 H 101.26359 V 29.193267 h 5.02073 v 8.459241 h 10.63417 v -8.459241 l -5.31707,-5.939367 -5.3171,5.939367 h -5.02073 L 109.64562,18.7327 Z"
       id="text4"
       style="font-weight:bold;font-size:25.4px;line-height:0.9;font-family:'Cooper Hewitt';-inkscape-font-specification:'Cooper Hewitt, Bold';font-variant-ligatures:discretionary-ligatures historical-ligatures;font-variant-numeric:oldstyle-nums;text-align:center;letter-spacing:0px;text-anchor:middle;stroke-width:4.2;paint-order:markers stroke fill"
       aria-label="^I"
       sodipodi:nodetypes="cccccccccccccc" />
    <path
       id="path4"
       style="font-size:25.4px;line-height:0.9;font-family:'Cooper Hewitt';-inkscape-font-specification:'Cooper Hewitt';font-variant-ligatures:discretionary-ligatures historical-ligatures;font-variant-numeric:oldstyle-nums;text-align:center;letter-spacing:0px;text-anchor:middle;stroke-width:4.2;paint-order:markers stroke fill"
       d="m 37.919576,144.67918 h 10.2108 v -10.81616 l -1.8288,0.52917 v 8.63599 h -10.0584 z m -3.5052,0 v -10.81616 l 1.8288,0.52917 v 8.63599 l 1.6764,1.651 z m 7.747,-17.26777 5.969,6.45161 -1.8288,0.52917 -5.0292,-5.2966 -5.0292,5.2966 -1.8288,-0.52917 5.969,-6.45161 z"
       sodipodi:nodetypes="ccccccccccccccccccccc"
       inkscape:export-filename="../urbilden.svg"
       inkscape:export-xdpi="300"
       inkscape:export-ydpi="300" />
    <path
       id="path6"
       style="font-size:25.4px;line-height:0.9;font-family:'Cooper Hewitt';-inkscape-font-specification:'Cooper Hewitt';font-variant-ligatures:discretionary-ligatures historical-ligatures;font-variant-numeric:oldstyle-nums;text-align:center;letter-spacing:0px;text-anchor:middle;stroke-width:4.2;paint-order:markers stroke fill"
       d="m 44.777576,144.67918 h 10.2108 v -10.81616 l -1.8288,0.52917 v 8.63599 h -10.0584 z m -3.5052,0 v -10.81616 l 1.8288,0.52917 v 8.63599 l 1.6764,1.651 z m 7.747,-17.26777 5.969,6.45161 -1.8288,0.52917 -5.0292,-5.2966 -5.0292,5.2966 -1.8288,-0.52917 5.969,-6.45161 z"
       sodipodi:nodetypes="ccccccccccccccccccccc" />
    <g
       id="g1"
       transform="translate(28.2683,-9.362749)">
      <circle
         style="fill:#deddda;stroke-width:4.2;paint-order:markers stroke fill"
         id="path7"
         cx="109.91629"
         cy="144.89473"
         r="16.194813"
         inkscape:export-filename="../assets/right-arrow.svg"
         inkscape:export-xdpi="39.210087"
         inkscape:export-ydpi="39.210087" />
      <text
         xml:space="preserve"
         style="font-style:normal;font-variant:normal;font-weight:normal;font-stretch:normal;font-size:25.4px;line-height:0.9;font-family:'Cooper Hewitt';-inkscape-font-specification:'Cooper Hewitt';font-variant-ligatures:discretionary-ligatures historical-ligatures;font-variant-numeric:oldstyle-nums;text-align:center;letter-spacing:0px;writing-mode:lr-tb;direction:ltr;text-anchor:middle;fill:#000000;stroke-width:4.2;paint-order:markers stroke fill"
         x="109.76389"
         y="154.80074"
         id="text7"><tspan
           sodipodi:role="line"
           id="tspan6"
           style="font-style:normal;font-variant:normal;font-weight:500;font-stretch:normal;font-family:'Cooper Hewitt';-inkscape-font-specification:'Cooper Hewitt Medium';stroke-width:4.2"
           x="109.76389"
           y="154.80074">→</tspan></text>
    </g>
    <text
       xml:space="preserve"
       style="font-weight:500;font-size:14.1111px;line-height:0.9;font-family:'Cooper Hewitt';-inkscape-font-specification:'Cooper Hewitt Medium';font-variant-ligatures:discretionary-ligatures historical-ligatures;font-variant-numeric:oldstyle-nums;text-align:center;letter-spacing:0.264583px;writing-mode:lr-tb;direction:ltr;text-anchor:middle;fill:#000000;stroke-width:4.2;paint-order:markers stroke fill"
       x="107.25654"
       y="186.00731"
       id="text1"><tspan
         sodipodi:role="line"
         id="tspan1"
         style="font-style:normal;font-variant:normal;font-weight:900;font-stretch:normal;font-size:14.1111px;font-family:'Cooper Hewitt';-inkscape-font-specification:'Cooper Hewitt Heavy';letter-spacing:0.264583px;fill:#000000;stroke-width:4.2"
         x="107.38883"
         y="186.00731">BRF URBILDEN</tspan></text>
    <path
       id="path1"
       style="fill:none;stroke:#000000;stroke-width:2.4;stroke-linecap:butt;stroke-linejoin:miter;stroke-dasharray:none;stroke-opacity:1;paint-order:normal"
       d="m 41.092812,171.38542 -5.419128,5.93375 v 8.99674 h 10.837847 v -8.99674 z" />
    <path
       id="path5"
       style="fill:none;stroke:#000000;stroke-width:2.4;stroke-linecap:butt;stroke-linejoin:miter;stroke-dasharray:none;stroke-opacity:1;paint-order:normal"
       d="m 47.040902,171.38542 -5.419128,5.93375 v 8.99674 h 10.837848 v -8.99674 z" />
    <rect
       style="fill:#ffffff;fill-opacity:1;stroke:none;stroke-width:2.80001;stroke-linecap:butt;stroke-linejoin:miter;stroke-dasharray:none;stroke-opacity:1;paint-order:normal"
       id="rect5"
       width="10.637561"
       height="1.8329338"
       x="38.595173"
       y="168.76628" />
    <path
       style="font-weight:900;font-size:14.1111px;line-height:0.9;font-family:'Cooper Hewitt';-inkscape-font-specification:'Cooper Hewitt Heavy';font-variant-ligatures:discretionary-ligatures historical-ligatures;font-variant-numeric:oldstyle-nums;text-align:center;letter-spacing:0.264583px;text-anchor:middle;stroke-width:4.2;paint-order:markers stroke fill;fill:#060504;fill-opacity:1"
       d="m 58.811353,208.34141 h 3.880553 q 0.578555,0 1.03011,0.0564 0.451555,0.0564 0.945444,0.254 0.507999,0.19756 0.846666,0.52211 0.338666,0.32456 0.550333,0.91723 0.225777,0.57855 0.225777,1.38288 v 0.28223 q 0,1.27 -0.917221,1.90499 1.199443,0.64912 1.199443,2.159 v 0.28223 q 0,0.83255 -0.239888,1.43933 -0.225778,0.60677 -0.592667,0.94544 -0.352777,0.33867 -0.888999,0.55033 -0.536222,0.19756 -1.015999,0.254 -0.479778,0.0565 -1.072444,0.0565 h -3.951108 z m 4.021664,6.54755 h -1.340555 v 2.14489 h 1.340555 q 1.03011,0 1.03011,-1.016 v -0.11289 q 0,-1.016 -1.03011,-1.016 z m -0.183445,-4.23333 h -1.15711 v 1.91911 h 1.15711 q 0.931333,0 0.931333,-0.87489 v -0.16933 q 0,-0.87489 -0.931333,-0.87489 z m 8.209139,4.91066 v 3.78178 h -2.681109 v -11.00666 h 3.795886 q 0.635,0 1.128888,0.0706 0.508,0.0564 1.058333,0.28222 0.564444,0.21166 0.931332,0.57855 0.366889,0.36689 0.606778,1.016 0.239888,0.64911 0.239888,1.524 v 0.28222 q 0,2.34245 -1.693332,3.10444 l 1.693332,4.14867 H 73.045932 L 71.6066,215.56629 Z m 0,-2.31422 h 1.227666 q 1.142999,0 1.142999,-1.24177 v -0.11289 q 0,-1.24178 -1.142999,-1.24178 h -1.227666 z m 6.544027,-4.91066 h 6.914439 v 2.31422 h -4.23333 v 1.91911 h 3.527775 v 2.31422 h -3.527775 v 4.45911 h -2.681109 z m 18.450266,10.28699 q -0.90311,0.91722 -3.174997,0.91722 -2.271888,0 -3.189109,-0.91722 -0.903111,-0.93133 -0.903111,-2.77988 v -7.50711 h 2.68111 v 7.43655 q 0,0.73378 0.296333,1.10067 0.296333,0.35277 1.114777,0.35277 0.818443,0 1.114776,-0.35277 0.296334,-0.36689 0.296334,-1.10067 v -7.43655 h 2.681109 v 7.50711 q 0,1.84855 -0.917222,2.77988 z m 5.203466,-3.06211 v 3.78178 h -2.681106 v -11.00666 h 3.795886 q 0.635,0 1.12889,0.0706 0.508,0.0564 1.05833,0.28222 0.56444,0.21166 0.93133,0.57855 0.36689,0.36689 0.60678,1.016 0.23989,0.64911 0.23989,1.524 v 0.28222 q 0,2.34245 -1.69333,3.10444 l 1.69333,4.14867 h -2.89278 l -1.43933,-3.78178 z m 0,-2.31422 h 1.22767 q 1.143,0 1.143,-1.24177 v -0.11289 q 0,-1.24178 -1.143,-1.24178 h -1.22767 z m 6.54403,-4.91066 h 3.88055 q 0.57856,0 1.03011,0.0564 0.45156,0.0564 0.94545,0.254 0.508,0.19756 0.84666,0.52211 0.33867,0.32456 0.55034,0.91723 0.22577,0.57855 0.22577,1.38288 v 0.28223 q 0,1.27 -0.91722,1.90499 1.19944,0.64912 1.19944,2.159 v 0.28223 q 0,0.83255 -0.23988,1.43933 -0.22578,0.60677 -0.59267,0.94544 -0.35278,0.33867 -0.889,0.55033 -0.53622,0.19756 -1.016,0.254 -0.47978,0.0565 -1.07244,0.0565 h -3.95111 z m 4.02166,6.54755 h -1.34055 v 2.14489 h 1.34055 q 1.03011,0 1.03011,-1.016 v -0.11289 q 0,-1.016 -1.03011,-1.016 z m -0.18344,-4.23333 h -1.15711 v 1.91911 h 1.15711 q 0.93133,0 0.93133,-0.87489 v -0.16933 q 0,-0.87489 -0.93133,-0.87489 z m 8.27969,-2.31422 v 11.00666 h -2.68111 v -11.00666 z m 8.3079,11.00666 h -6.56166 v -11.00666 h 2.68111 v 8.69244 h 3.88055 z m 9.46503,-5.22111 q 0,2.85044 -1.08655,4.03578 -1.07245,1.18533 -3.66889,1.18533 h -3.52777 v -11.00666 h 3.52777 q 2.59644,0 3.66889,1.18533 1.08655,1.18533 1.08655,4.03578 z m -5.6021,2.90689 h 0.70555 q 1.29822,0 1.73567,-0.67734 0.43744,-0.67733 0.43744,-2.22955 v -0.56444 q 0,-1.55222 -0.43744,-2.22956 -0.43745,-0.67733 -1.73567,-0.67733 h -0.70555 z m 7.03791,-8.69244 h 6.91444 v 2.31422 h -4.23333 v 1.91911 h 3.52778 v 2.31422 h -3.52778 v 2.14489 h 4.23333 v 2.31422 h -6.91444 z m 16.77456,0 v 11.00666 h -2.82222 l -3.03388,-6.06777 0.0705,2.11666 v 3.95111 h -2.54 v -11.00666 h 2.82222 l 3.03389,6.06777 -0.0705,-2.11666 v -3.95111 z"
       id="text8"
       aria-label="BRF URBILDEN" />
    <g
       id="g9"
       transform="translate(-1.0583333)">
      <g
         id="g10" />
    </g>
    <path
       id="path11"
       style="fill:#060504;stroke-width:2.80001;fill-opacity:1"
       d="m 45.217911,203.94001 -5.712829,6.25543 v 10.66188 h 13.236401 v -10.66188 l -5.710763,-6.25543 z m 0.906405,2.56573 4.218864,4.61936 v 7.33185 h -8.439278 v -7.33185 z" />
  </g>
</svg>
