<?xml version="1.0" encoding="UTF-8" standalone="no"?>
<!-- Created with Inkscape (http://www.inkscape.org/) -->

<svg
   width="124.70951mm"
   height="21.995783mm"
   viewBox="0 0 124.70951 21.995783"
   version="1.1"
   id="svg1"
   xmlns="http://www.w3.org/2000/svg"
   xmlns:svg="http://www.w3.org/2000/svg">
  <defs
     id="defs1" />
  <g
     id="layer1"
     transform="translate(-30.992204,-203.30606)">
    <path
       style="fill:#FBDD70;fill-opacity:1;stroke:none;stroke-width:2.4;stroke-linecap:butt;stroke-linejoin:miter;stroke-dasharray:none;stroke-opacity:1;paint-order:normal"
       d="m 37.210748,222.46905 c 12.056928,10.23966 25.400994,-10.13718 13.204521,-15.9305 -22.03488,-10.46656 -23.635775,7.07149 -13.204521,15.9305 z"
       id="path12" />
    <path
       id="rect9"
       style="fill:#060504;fill-opacity:1;stroke-width:2.80001"
       d="m 39.128877,203.94001 -5.712829,6.25543 v 10.66188 h 13.236401 v -10.66188 l -5.710763,-6.25543 z m 0.906405,2.56573 4.218864,4.61936 v 7.33185 h -8.439279 v -7.33185 z" />
    <path
       style="font-weight:900;font-size:14.1111px;line-height:0.9;font-family:'Cooper Hewitt';-inkscape-font-specification:'Cooper Hewitt Heavy';font-variant-ligatures:discretionary-ligatures historical-ligatures;font-variant-numeric:oldstyle-nums;text-align:center;letter-spacing:0.264583px;text-anchor:middle;fill:#060504;fill-opacity:1;stroke-width:4.2;paint-order:markers stroke fill"
       d="m 58.811353,208.34141 h 3.880553 q 0.578555,0 1.03011,0.0564 0.451555,0.0564 0.945444,0.254 0.507999,0.19756 0.846666,0.52211 0.338666,0.32456 0.550333,0.91723 0.225777,0.57855 0.225777,1.38288 v 0.28223 q 0,1.27 -0.917221,1.90499 1.199443,0.64912 1.199443,2.159 v 0.28223 q 0,0.83255 -0.239888,1.43933 -0.225778,0.60677 -0.592667,0.94544 -0.352777,0.33867 -0.888999,0.55033 -0.536222,0.19756 -1.015999,0.254 -0.479778,0.0565 -1.072444,0.0565 h -3.951108 z m 4.021664,6.54755 h -1.340555 v 2.14489 h 1.340555 q 1.03011,0 1.03011,-1.016 v -0.11289 q 0,-1.016 -1.03011,-1.016 z m -0.183445,-4.23333 h -1.15711 v 1.91911 h 1.15711 q 0.931333,0 0.931333,-0.87489 v -0.16933 q 0,-0.87489 -0.931333,-0.87489 z m 8.209139,4.91066 v 3.78178 h -2.681109 v -11.00666 h 3.795886 q 0.635,0 1.128888,0.0706 0.508,0.0564 1.058333,0.28222 0.564444,0.21166 0.931332,0.57855 0.366889,0.36689 0.606778,1.016 0.239888,0.64911 0.239888,1.524 v 0.28222 q 0,2.34245 -1.693332,3.10444 l 1.693332,4.14867 H 73.045932 L 71.6066,215.56629 Z m 0,-2.31422 h 1.227666 q 1.142999,0 1.142999,-1.24177 v -0.11289 q 0,-1.24178 -1.142999,-1.24178 h -1.227666 z m 6.544027,-4.91066 h 6.914439 v 2.31422 h -4.23333 v 1.91911 h 3.527775 v 2.31422 h -3.527775 v 4.45911 h -2.681109 z m 18.450266,10.28699 q -0.90311,0.91722 -3.174997,0.91722 -2.271888,0 -3.189109,-0.91722 -0.903111,-0.93133 -0.903111,-2.77988 v -7.50711 h 2.68111 v 7.43655 q 0,0.73378 0.296333,1.10067 0.296333,0.35277 1.114777,0.35277 0.818443,0 1.114776,-0.35277 0.296334,-0.36689 0.296334,-1.10067 v -7.43655 h 2.681109 v 7.50711 q 0,1.84855 -0.917222,2.77988 z m 5.203466,-3.06211 v 3.78178 h -2.681106 v -11.00666 h 3.795886 q 0.635,0 1.12889,0.0706 0.508,0.0564 1.05833,0.28222 0.56444,0.21166 0.93133,0.57855 0.36689,0.36689 0.60678,1.016 0.23989,0.64911 0.23989,1.524 v 0.28222 q 0,2.34245 -1.69333,3.10444 l 1.69333,4.14867 h -2.89278 l -1.43933,-3.78178 z m 0,-2.31422 h 1.22767 q 1.143,0 1.143,-1.24177 v -0.11289 q 0,-1.24178 -1.143,-1.24178 h -1.22767 z m 6.54403,-4.91066 h 3.88055 q 0.57856,0 1.03011,0.0564 0.45156,0.0564 0.94545,0.254 0.508,0.19756 0.84666,0.52211 0.33867,0.32456 0.55034,0.91723 0.22577,0.57855 0.22577,1.38288 v 0.28223 q 0,1.27 -0.91722,1.90499 1.19944,0.64912 1.19944,2.159 v 0.28223 q 0,0.83255 -0.23988,1.43933 -0.22578,0.60677 -0.59267,0.94544 -0.35278,0.33867 -0.889,0.55033 -0.53622,0.19756 -1.016,0.254 -0.47978,0.0565 -1.07244,0.0565 h -3.95111 z m 4.02166,6.54755 h -1.34055 v 2.14489 h 1.34055 q 1.03011,0 1.03011,-1.016 v -0.11289 q 0,-1.016 -1.03011,-1.016 z m -0.18344,-4.23333 h -1.15711 v 1.91911 h 1.15711 q 0.93133,0 0.93133,-0.87489 v -0.16933 q 0,-0.87489 -0.93133,-0.87489 z m 8.27969,-2.31422 v 11.00666 h -2.68111 v -11.00666 z m 8.3079,11.00666 h -6.56166 v -11.00666 h 2.68111 v 8.69244 h 3.88055 z m 9.46503,-5.22111 q 0,2.85044 -1.08655,4.03578 -1.07245,1.18533 -3.66889,1.18533 h -3.52777 v -11.00666 h 3.52777 q 2.59644,0 3.66889,1.18533 1.08655,1.18533 1.08655,4.03578 z m -5.6021,2.90689 h 0.70555 q 1.29822,0 1.73567,-0.67734 0.43744,-0.67733 0.43744,-2.22955 v -0.56444 q 0,-1.55222 -0.43744,-2.22956 -0.43745,-0.67733 -1.73567,-0.67733 h -0.70555 z m 7.03791,-8.69244 h 6.91444 v 2.31422 h -4.23333 v 1.91911 h 3.52778 v 2.31422 h -3.52778 v 2.14489 h 4.23333 v 2.31422 h -6.91444 z m 16.77456,0 v 11.00666 h -2.82222 l -3.03388,-6.06777 0.0705,2.11666 v 3.95111 h -2.54 v -11.00666 h 2.82222 l 3.03389,6.06777 -0.0705,-2.11666 v -3.95111 z"
       id="text8"
       aria-label="BRF URBILDEN" />
    <path
       id="path11"
       style="fill:#060504;fill-opacity:1;stroke-width:2.80001"
       d="m 45.217911,203.94001 -5.712829,6.25543 v 10.66188 h 13.236401 v -10.66188 l -5.710763,-6.25543 z m 0.906405,2.56573 4.218864,4.61936 v 7.33185 h -8.439278 v -7.33185 z" />
  </g>
</svg>
